<svg width="15" height="16" viewBox="0 0 15 16" fill="none" xmlns="http://www.w3.org/2000/svg">
<path d="M14 8.28727H2V2.66227C1.99942 2.45044 2.04086 2.24059 2.12193 2.04489C2.203 1.84918 2.32208 1.67149 2.47228 1.52212L2.48478 1.50962C2.72018 1.27457 3.0224 1.11792 3.35016 1.06109C3.67792 1.00425 4.01524 1.04999 4.31603 1.19205C4.03196 1.66436 3.91389 2.21806 3.98057 2.76517C4.04726 3.31228 4.29488 3.8214 4.68409 4.21165L5.02631 4.55387L4.39641 5.1838L5.10347 5.89087L5.73338 5.26096L9.22366 1.77074L9.85356 1.14083L9.14647 0.433741L8.51653 1.06365L8.17431 0.721428C7.76458 0.312844 7.22448 0.0609776 6.64812 0.0097197C6.07176 -0.0415382 5.49568 0.111062 5.02028 0.440928C4.51897 0.124339 3.9249 -0.0123354 3.33564 0.0533583C2.74638 0.119052 2.19699 0.383207 1.77772 0.802428L1.76522 0.814928C1.52186 1.05696 1.32892 1.34485 1.19757 1.66195C1.06622 1.97905 0.999066 2.31905 1 2.66227V8.28727H0V9.28727H1V10.2466C0.999978 10.3273 1.01298 10.4073 1.0385 10.4838L1.96875 13.2744C2.01839 13.4238 2.11385 13.5538 2.24156 13.6459C2.36928 13.7379 2.52275 13.7874 2.68019 13.7873H3.08331L2.71875 15.0373H3.76041L4.125 13.7873H10.6281L11.0031 15.0373H12.0469L11.6719 13.7873H12.3197C12.4771 13.7874 12.6306 13.738 12.7584 13.6459C12.8861 13.5538 12.9816 13.4239 13.0312 13.2744L13.9614 10.4838C13.987 10.4073 14 10.3273 14 10.2466V9.28727H15V8.28727H14ZM5.39125 1.42852C5.66675 1.15362 6.04004 0.999236 6.42923 0.999236C6.81842 0.999236 7.19172 1.15362 7.46722 1.42852L7.80937 1.77074L5.73347 3.84665L5.39125 3.50449C5.11637 3.22898 4.96199 2.85569 4.96199 2.46651C4.96199 2.07732 5.11637 1.70403 5.39125 1.42852V1.42852ZM13 10.206L12.1396 12.7873H2.86037L2 10.206V9.28727H13V10.206Z" fill="#0BAFF5"/>
</svg>
