<svg width="21" height="15" viewBox="0 0 21 15" fill="none" xmlns="http://www.w3.org/2000/svg">
<path d="M17.4419 3.13953H8.37209V8.39908H7.40608V6.61129C7.40496 5.59837 7.00208 4.62725 6.28584 3.91099C5.5696 3.19474 4.59849 2.79184 3.58557 2.7907H1.39535V0H0V15H1.39535V12.9182L19.5349 13.0633V15H20.9302V6.62791C20.9292 5.70306 20.5613 4.81638 19.9074 4.16241C19.2534 3.50845 18.3667 3.14058 17.4419 3.13953V3.13953ZM1.39535 4.18605H3.58557C4.22854 4.18677 4.84496 4.44251 5.29961 4.89716C5.75426 5.35181 6.01 5.96824 6.01073 6.61121V8.399H1.39535V4.18605ZM19.5349 11.6679L1.39535 11.5228V9.79443H19.5349V11.6679ZM19.5349 8.39908H9.76744V4.53488H17.4419C17.9968 4.53552 18.5288 4.75624 18.9212 5.14862C19.3135 5.541 19.5342 6.073 19.5349 6.62791V8.39908Z" fill="#0BAFF5"/>
</svg>
