<svg width="15" height="15" viewBox="0 0 15 15" fill="none" xmlns="http://www.w3.org/2000/svg">
<path d="M13.3862 14.9999H13.3861L9.73482 14.9995C9.41221 14.999 9.10294 14.8707 8.87484 14.6426C8.64674 14.4144 8.51842 14.1051 8.51804 13.7825V10.1317H6.08418V13.7825C6.0838 14.1051 5.95549 14.4144 5.72739 14.6425C5.49928 14.8706 5.19001 14.999 4.86741 14.9994L1.21708 15C1.05726 15 0.898997 14.9686 0.751335 14.9074C0.603673 14.8463 0.469502 14.7566 0.356484 14.6436C0.243466 14.5306 0.153814 14.3965 0.0926478 14.2488C0.0314819 14.1012 -1.24861e-09 13.9429 0 13.7831V6.75075C0.000132593 6.5812 0.0356242 6.41355 0.104208 6.25849C0.172792 6.10343 0.27296 5.96438 0.398316 5.85022L6.48242 0.318296C6.70591 0.113589 6.99797 2.81624e-05 7.30104 5.23739e-09C7.60411 -2.81519e-05 7.8962 0.113478 8.11972 0.318144L14.2049 5.8503C14.3302 5.96447 14.4303 6.10351 14.4989 6.25855C14.5675 6.41359 14.603 6.58122 14.6031 6.75075V13.7831C14.6031 14.1058 14.4749 14.4154 14.2467 14.6436C14.0185 14.8718 13.709 15 13.3862 15V14.9999ZM6.08418 8.91475H8.51804C8.84068 8.91511 9.15 9.04344 9.37814 9.27158C9.60628 9.49972 9.73461 9.80904 9.73497 10.1317V13.7832L13.3862 13.7831V6.75075L7.30111 1.21867L1.21693 6.75067V13.783L4.86726 13.7825V10.1317C4.86762 9.80904 4.99595 9.49972 5.22409 9.27158C5.45223 9.04344 5.76155 8.91511 6.08418 8.91475V8.91475Z" fill="#0BAFF5"/>
</svg>
